<svg width="364" height="13" viewBox="0 0 364 13" fill="none" xmlns="http://www.w3.org/2000/svg">
<path d="M181.914 0.5C232.03 0.5 277.399 1.227 310.236 2.403C326.656 2.991 339.936 3.691 349.108 4.468C353.697 4.856 357.245 5.263 359.641 5.683C360.842 5.893 361.731 6.10201 362.31 6.30701C362.509 6.37701 362.658 6.443 362.765 6.5C362.658 6.557 362.509 6.62299 362.31 6.69299C361.731 6.89799 360.842 7.107 359.641 7.317C357.245 7.737 353.697 8.144 349.108 8.532C339.936 9.309 326.656 10.009 310.236 10.597C277.399 11.773 232.03 12.5 181.914 12.5C131.798 12.5 86.4293 11.773 53.592 10.597C37.1725 10.009 23.8922 9.309 14.72 8.532C10.1315 8.144 6.58299 7.737 4.18769 7.317C2.98659 7.107 2.09759 6.89799 1.51779 6.69299C1.31829 6.62299 1.16959 6.557 1.06269 6.5C1.16959 6.443 1.31829 6.37701 1.51779 6.30701C2.09759 6.10201 2.98659 5.893 4.18769 5.683C6.58299 5.263 10.1315 4.856 14.72 4.468C23.8922 3.691 37.1725 2.991 53.592 2.403C86.4293 1.227 131.798 0.5 181.914 0.5Z" fill="#D9D9D9" stroke="#E3E9E1"/>
</svg>
